<svg width="57" height="38" viewBox="0 0 57 38" xmlns="http://www.w3.org/2000/svg" preserveAspectRatio="xMidYMid">
  <defs>
    <style>
      path {
        fill-rule: evenodd;
        fill: url(#gradientbg);
      }
    </style>
    <linearGradient id="gradientbg" x1="0%" y1="0%" x2="100%" y2="0%">
      <stop offset="0%" style="stop-color: #385ed4; stop-opacity: 1" />
      <stop offset="100%" style="stop-color: #26bf99; stop-opacity: 1" />
    </linearGradient>
  </defs>
  <path d="M54.41 22.926a2.626 2.626 0 0 1-2.591-2.66v-3.292a2.592 2.592 0 1 1 5.182 0v3.293a2.626 2.626 0 0 1-2.591 2.659zM44.045 26.6a2.626 2.626 0 0 1-2.591-2.66v-1.52a2.592 2.592 0 1 0-5.182 0v6.46a2.592 2.592 0 1 1-5.182 0v-1.394a2.592 2.592 0 1 0-5.182 0v7.853a2.592 2.592 0 1 1-5.182 0v-9.372a2.592 2.592 0 1 0-5.182 0v.633a2.592 2.592 0 1 1-5.182 0V14.06a2.592 2.592 0 1 1 5.182 0v.253a2.592 2.592 0 1 0 5.182 0V9.121a2.592 2.592 0 1 1 5.182 0v1.393a2.592 2.592 0 1 0 5.182 0V2.661a2.592 2.592 0 1 1 5.182 0V13.3a2.592 2.592 0 1 0 5.182 0v-1.9a2.592 2.592 0 1 1 5.182 0v12.54a2.626 2.626 0 0 1-2.591 2.66zM2.589 23.687A2.626 2.626 0 0 1 0 21.027v-3.293a2.592 2.592 0 1 1 5.182 0v3.293a2.626 2.626 0 0 1-2.593 2.659z" />
</svg>