<svg xmlns="http://www.w3.org/2000/svg" width="30" height="30" viewBox="0 0 28.571 28.571">
  <defs>
    <style>
      .cls-1 {
        fill: #282827;
        fill-rule: evenodd;
      }
    </style>
  </defs>
  <path id="arrow" class="cls-1" d="M20.041,17.142l-0.023.033-2.832-1.928,0.024-.032a7.509,7.509,0,0,0,1.346-4.2H18.534c0-.013,0-0.027,0-0.04a7.55,7.55,0,1,0-7.874,7.53l-2.751-3.7,2.692-2,6.057,8.136L8.518,27l-2-2.691,3.256-2.422A10.978,10.978,0,0,1,10.985,0a11.557,11.557,0,0,1,6.271,1.928A10.873,10.873,0,0,1,20.041,17.142Z" transform="translate(3.286 0.786)"/>
</svg>
